<?xml version="1.0" encoding="utf-8"?>
<!-- Generator: Adobe Illustrator 16.0.0, SVG Export Plug-In . SVG Version: 6.00 Build 0)  -->
<!DOCTYPE svg PUBLIC "-//W3C//DTD SVG 1.1//EN" "http://www.w3.org/Graphics/SVG/1.1/DTD/svg11.dtd">
<svg version="1.1" id="Layer_1" xmlns="http://www.w3.org/2000/svg" xmlns:xlink="http://www.w3.org/1999/xlink" x="0px" y="0px"
	 width="150px" height="150px" viewBox="0 0 150 150" enable-background="new 0 0 150 150" xml:space="preserve">
<polygon points="138.495,99.524 116.741,98.854 126.159,86.647 136.815,86.647 "/>
<g>
	<g>
		<g>
			<path fill="none" d="M137.075,68.061c0,0-2.023-0.064-5.565-0.176c-1.783-0.053-3.948-0.117-6.433-0.19
				c-2.551-0.056-5.429-0.118-8.567-0.187c-6.279-0.136-13.604-0.295-21.453-0.465c-7.807-0.104-16.134-0.215-24.461-0.326
				c-8.36-0.154-16.553-0.082-24.297-0.1c-7.725-0.002-14.935-0.004-21.115-0.006c-12.346-0.009-20.577-0.015-20.577-0.015
				l-0.109,49.101c0,0,8.262,0.006,20.654,0.015c6.189,0.002,13.41,0.004,21.147,0.007c7.718,0.018,16.018-0.055,24.149,0.099
				c8.163,0.109,16.327,0.22,23.981,0.322c7.609,0.166,14.712,0.32,20.8,0.453c3.044,0.065,5.834,0.126,8.307,0.18
				c2.539,0.075,4.753,0.141,6.575,0.194c3.671,0.116,5.769,0.182,5.769,0.182L137.075,68.061z"/>
			<path fill-rule="evenodd" clip-rule="evenodd" fill="#787878" d="M31.399,111.482c-0.073,0.167-0.2,0.216-0.348,0.22
				C31.086,111.42,31.28,111.218,31.399,111.482z"/>
			<path fill-rule="evenodd" clip-rule="evenodd" fill="#787878" d="M26.151,78.172c-0.105,0.146-0.437,0.429-0.4-0.143
				C25.938,77.971,26.017,78.126,26.151,78.172z"/>
			<path fill-rule="evenodd" clip-rule="evenodd" fill="#787878" d="M25.587,77.42c-0.028,0.268-0.283,0.032-0.402,0.096
				C25.19,77.169,25.512,77.252,25.587,77.42z"/>
			<path fill-rule="evenodd" clip-rule="evenodd" fill="#787878" d="M23.97,82.489c-0.083,0.181-0.302,0.324-0.403,0.099
				C23.595,82.32,23.85,82.554,23.97,82.489z"/>
			<path fill-rule="evenodd" clip-rule="evenodd" fill="#787878" d="M23.238,77.165c-0.139,0.313-0.373,0.412-0.693,0.322
				C22.658,77.118,22.99,77.235,23.238,77.165z"/>
			<path fill-rule="evenodd" clip-rule="evenodd" fill="#787878" d="M21.214,103.342c-0.352,0.026-1.072,0.489-1.322-0.075
				C20.32,103.62,20.813,103.049,21.214,103.342z"/>
			<path fill-rule="evenodd" clip-rule="evenodd" fill="#787878" d="M20.281,91.884c-0.44,0.702-1.224-0.085-1.787,0.379
				c-0.079-0.588,0.823-0.075,0.985-0.544c0.133,0.047,0.234,0.157,0.341,0.259C19.975,91.935,20.12,91.545,20.281,91.884z"/>
			<path fill-rule="evenodd" clip-rule="evenodd" fill="#787878" d="M14.905,90.139c0.012,0.315-0.029,0.514-0.179,0.469
				c-0.042-0.108-0.057-0.273-0.049-0.482L14.905,90.139z"/>
			<path fill-rule="evenodd" clip-rule="evenodd" fill="#787878" d="M12.665,94.212c-0.355,0.541-1.166,0.574-1.611,0.148
				c-0.06,0.075-0.064,0.274-0.176,0.23c-0.267,0.064-0.864-0.157-0.285-0.136C11.311,94.081,11.876,94.46,12.665,94.212z"/>
			<path fill-rule="evenodd" clip-rule="evenodd" fill="#787878" d="M12.406,88.194c-0.085,0.181-0.228,0.24-0.405,0.218
				C12.044,88.121,12.34,88.064,12.406,88.194z"/>
			<path fill-rule="evenodd" clip-rule="evenodd" fill="#787878" d="M11.834,103.891c-0.065,0.27-0.361,0.023-0.519,0.09
				C11.43,103.82,11.707,103.645,11.834,103.891z"/>
			<path fill-rule="evenodd" clip-rule="evenodd" fill="#787878" d="M11.975,90.211c-0.142,0.305-0.461,0.218-0.638,0.445
				C11.181,90.182,11.756,90.268,11.975,90.211z"/>
			<path fill-rule="evenodd" clip-rule="evenodd" fill="#787878" d="M11.713,88.516c-0.114,0.369-0.446,0.252-0.695,0.322
				C11.167,88.545,11.488,88.636,11.713,88.516z"/>
			<path fill-rule="evenodd" clip-rule="evenodd" fill="#787878" d="M11.276,106.74c-0.021,0.407-0.248,0.36-0.41,0.456
				C10.901,106.82,11.133,106.879,11.276,106.74z"/>
			<path fill-rule="evenodd" clip-rule="evenodd" fill="#787878" d="M11.03,103.846c-0.188,0.335-0.833,0.234-1.152,0.173
				C10.283,103.742,10.589,103.767,11.03,103.846z"/>
			<path fill-rule="evenodd" clip-rule="evenodd" fill="#787878" d="M10.904,88.832c-0.297,0.548-0.728,0.114-0.978,0.063
				C10.2,88.576,10.594,89.161,10.904,88.832z"/>
			<path fill-rule="evenodd" clip-rule="evenodd" fill="#787878" d="M10.133,94.43c-0.112,0.204-0.303,0.236-0.464,0.335
				C9.638,94.241,9.939,94.456,10.133,94.43z"/>
			<path fill-rule="evenodd" clip-rule="evenodd" fill="#787878" d="M9.634,93.2c-0.137,0.297-0.258,0.158-0.461,0.094
				C9.22,93.025,9.496,93.266,9.634,93.2z"/>
			<path fill-rule="evenodd" clip-rule="evenodd" fill="#787878" d="M9.139,91.732c-0.064,0.314-0.495,0.376-0.398-0.264
				c0.123-0.049,0.107,0.177,0.109,0.367C8.988,91.893,8.978,91.623,9.139,91.732z"/>
			<path fill-rule="evenodd" clip-rule="evenodd" fill="#787878" d="M7.911,100.906C8.196,100.415,8.682,101.16,7.911,100.906
				L7.911,100.906z"/>
			<path fill-rule="evenodd" clip-rule="evenodd" fill="#787878" d="M7.271,105.313c-0.237,0.244-0.471,0.175-0.749,0.077
				C6.698,105.231,7.154,105.207,7.271,105.313z"/>
			<path fill-rule="evenodd" clip-rule="evenodd" fill="#787878" d="M7.088,106.021c0.083,0.374-0.38,0.348-0.287-0.016
				L7.088,106.021z"/>
			<path fill-rule="evenodd" clip-rule="evenodd" fill="#787878" d="M6.533,112.354c-0.082,0.246-0.264,0.303-0.406,0.218
				C6.17,112.277,6.468,112.222,6.533,112.354z"/>
			<path fill-rule="evenodd" clip-rule="evenodd" fill="#787878" d="M4.931,111.782C4.451,112.333,4.283,111.765,4.931,111.782
				L4.931,111.782z"/>
			<path fill-rule="evenodd" clip-rule="evenodd" fill="#787878" d="M17.873,112.036c-0.096,0.161-0.23,0.235-0.295,0.463
				c-0.177-0.484-0.503-0.055-0.744-0.281C17.128,111.689,17.444,112.365,17.873,112.036z"/>
			<path fill-rule="evenodd" clip-rule="evenodd" fill="#787878" d="M11.464,101.709c-0.14,0.041-0.122-0.227-0.285-0.137
				c-0.014-0.195,0.057-0.204,0.063-0.358c-0.287-0.095-0.446,0.087-0.691,0.082c0.032-0.096,0.063-0.191,0.063-0.355
				c-0.326,0.646-0.702-0.38-1.379-0.079c0.649-0.687,2.083-0.173,2.648-0.33c-0.085,0.473-0.581,0.035-0.64,0.564
				C11.229,101.474,11.562,101.164,11.464,101.709z"/>
			<path fill-rule="evenodd" clip-rule="evenodd" fill="#787878" d="M10.881,90.391c-0.065,0.019-0.034,0.118-0.001,0.12
				c-0.019,0.279-0.253,0.054-0.288-0.017C10.663,90.155,11.421,90.349,10.881,90.391z"/>
			<path fill-rule="evenodd" clip-rule="evenodd" fill="#787878" d="M6.611,91.709l0.007-0.48c-0.367,0.025-0.956,0.134-1.201-0.31
				c0.435-0.337,1.356,0.497,1.669-0.264c0.074,0.127,0.21,0.128,0.284,0.255c1.015-0.754,2.112,0.06,3.165-0.42
				c-0.474,1.276-1.541-0.473-2.08,0.842c-0.087-0.067-0.001-0.124,0.059-0.115C8.049,91.233,7.213,90.941,6.611,91.709z"/>
			<path fill-rule="evenodd" clip-rule="evenodd" fill="#787878" d="M6.959,106.976c-0.09,0.214-0.252,0.266-0.352,0.46
				C6.555,107.412,6.843,106.648,6.959,106.976z"/>
			<path fill-rule="evenodd" clip-rule="evenodd" fill="#787878" d="M121.188,116.721c0.253,0.01,0.544-0.422,0.811-0.418
				c0.622,0.009,1.165,0.486,1.8,0.262c0.563-0.196,1.095-0.829,1.702-0.944c0.445-0.087,0.595-0.263,0.896-0.404
				c0.877-0.41,1.578-0.164,1.988-1.39c0.629-0.798,1.4-1.252,1.951-1.995c0.086-0.118,0.262-0.051,0.296-0.096
				c1.398-1.866,2.304-4.955,3.914-6.274c0.155-0.7,0.272-1.722,0.563-2.596c0.129-0.392,0.406-0.64,0.503-1.04
				c0.356-1.485,0.123-3.395,0.746-4.503c0.042-0.375-0.064-0.478-0.088-0.73c0.09-2.981-0.083-5.501,0.119-7.807
				c-0.373-1.378-0.245-2.956-0.527-4.256c-0.175-0.808-0.538-1.576-0.767-2.353c-0.263-0.888-0.546-1.573-0.76-2.473
				c0.025-0.9-0.333-1.081-0.384-1.839c-0.427-0.571-0.74-1.353-1.174-1.908c-0.035-0.303-0.137-0.485-0.137-0.854
				c-0.899-1.564-1.793-3.489-3.06-4.121c-0.114-0.056-0.358-0.165-0.502-0.165c-0.957,0-2.406-0.362-2.878-1.577
				c-0.175-0.101-0.182,0.194-0.354,0.093c-0.094-0.576-0.581-1.667-1.035-1.644c-0.157,0.008-0.453,0.771-0.799,0.901
				c-0.515,0.193-0.964-0.857-1.428-0.711c-0.213,0.067-0.456,0.757-0.681,0.91c-0.584,0.398-1.735,0.083-2.209-0.17
				c-0.373-0.2-0.499-0.773-0.79-0.663c-0.262,0.101-0.475,0.721-0.475,1.648c-0.799,2.013-2.67,0.402-3.837,1.266
				c-0.823-0.746-1.655,0.443-2.456,0.292c-0.161-0.032-0.348-0.284-0.514-0.28c-0.276,0.005-0.652,0.386-1.01,0.523
				c-0.61,0.235-1.141,0.168-1.645,0.474c-0.745-1.211-1.339,0.155-1.982,0.087c-0.241-0.025-0.472-0.414-0.743-0.417
				c-0.229-0.004-0.456,0.338-0.707,0.306c-0.249-0.03-0.502-0.419-0.744-0.417c-0.18,0-0.326,0.233-0.472,0.204
				c-0.192-0.038-0.31-0.327-0.515-0.28c-0.216,0.051-0.44,0.503-0.657,0.551c-0.796,0.173-1.642-0.339-2.401,0.536
				c-1.338-0.78-2.531,0.395-4.117-0.438c-0.402,0.233-0.696,0.401-1.109,0.154c-0.094,0.085-0.097,0.374-0.242,0.343
				c-0.824-0.37-1.714,0.609-2.56,0.168c-0.031,0.141-0.067,0.268-0.124,0.352c-1.169-0.59-2.657-0.688-3.587-0.006
				c-0.711-0.61-1.551,0.067-2.433,0.074c-0.415,0.003-0.82-0.33-1.21-0.203c-0.763,0.249-1.757-0.079-2.49,0.07
				c-0.218,0.044-0.432,0.384-0.646,0.437c-0.388,0.097-0.799-0.254-1.212-0.083c-1.594,0.659-3.414,0.166-4.806,0.152
				c-0.43-0.005-0.799,0.379-1.281,0.512c-0.798,0.221-1.623-0.433-2.424-0.286c-0.201,0.038-0.398,0.273-0.583,0.321
				c-0.48,0.121-0.937-0.115-1.444-0.099c-1.238,0.04-2.482,0.688-3.646,0.111c-1.484,0.777-3.665,0.47-5.377,0.609
				c-0.386,0.654-0.753,0.092-1.15,0.175c-1.228,0.258-2.799,1-4.085,0.492c-5.408,1.158-11.044,0.65-16.396,1.961
				c-0.419-0.496-1.069-0.179-1.438,0.161c-0.079-0.313-0.325-0.294-0.512-0.39c-0.671,0.798-1.514,0.152-2.359,0.347
				c-0.215,0.779-0.725,0.192-1.044,0.783c-0.137-0.429,0.184-0.367-0.05-0.603c-0.548,1.412-2.399,0.751-3.229,1.137
				c0.058,0.004,0.07,0.215-0.003,0.241c-0.201-0.353-0.296,0.351-0.521,0.329c-1.508,0.157-2.585,1.551-3.873,2.062
				c-0.161-0.199-0.592-0.802-0.742-0.282c0.232,0.085,0.528,0.044,0.508,0.629c-0.387-0.191-0.896,0.07-1.155,0.535
				c-0.478,0.054-0.723-0.259-1.15,0.175c-0.105-0.01,0.101,0.608-0.123,0.593c-0.669-0.31-1.007,0.204-1.605-0.092
				c-0.175,0.553-0.88,0.716-1.097,0.418c-0.196,0.24,0.215,0.464,0.049,0.603c-0.544,0.174-1.05,0.406-1.55,0.032
				c-0.125,0.261-0.207,0.614-0.412,0.697c-0.138,0.039,0.04-0.544-0.167-0.369c-0.194,0.313,0.149,0.552,0.102,0.966
				c-0.272,0.195-0.219,0.488-0.356,0.82c-0.379-0.329-0.639,0.344-0.984,0.544c-0.355,0.208-0.75,0.002-1.093,0.179
				c-0.294,0.149-0.421,0.565-0.754,0.556c-0.271-0.007-0.498-0.438-0.798-0.404c-0.159,0.099,0.106,0.447-0.121,0.473
				c-1.054,0.143-2.107,0.286-2.887,1.036c1.195-0.937,2.065,0.064,3.112-0.782c0.157,0.539,0.471-0.334,0.626,0.396
				c0.071-0.311-0.17-0.526,0.064-0.478c0.078,0.043,0.107,0.179,0.228,0.134c-0.149,0.643,0.072,0.643,0.157,1.09
				c0.891-0.035,1.588-0.334,2.359-0.347c0.143-0.151-0.099-0.366,0.064-0.477c0.293-0.107,0.518-0.013,0.865-0.191
				c0.103,0.477,0.335,0.711,0.21,1.333c-1.039-0.045-2.453,0.893-3.689,0.992c-0.375,0.028-0.763-0.456-0.98,0.304
				c0.555-0.232,1.002,0.607,1.484,0.685c0.625,0.098,1.292-0.657,1.902-0.492c0.172,0.046,0.243,0.264,0.398,0.262
				c0.122,0,0.329-0.355,0.465-0.334c0.148,0.024,0.157,0.283,0.284,0.256c0.261-0.054,0.462-0.451,0.752-0.438
				c0.484,0.025,0.958,0.476,1.489,0.325c0.097,0.214,0.054,0.745-0.069,0.837c-0.629-0.031-0.736-0.002-1.379,0.041
				c0.072,0.054,0.116,0.162,0.11,0.367c-0.198-0.036-0.268-0.187-0.404,0.098c0.478-0.023,0.434,0.905,0.27,1.336
				c-1.186-0.164-2.642,0.261-3.619-0.086c-0.108,0.255-0.177,0.595-0.354,0.7c-1.1,0.3-2.331-0.009-3.509,0.28
				c1.343,0.716,2.748,0.292,4.31,0.006c0.06,0.114,0.011,0.443,0.167,0.369c0.666-0.338,1.442-0.248,1.959-0.369
				c0.229,0.518,0.452,1.051,0.667,1.599c1.639-0.436,2.833,1.685,4.401,1.691c-0.008,0.364,0.115,0.473,0.162,0.729
				c-0.126,0.298-0.21,0.686-0.357,0.94c-0.257,0.022-0.521,0.218-0.747-0.043c-1.322,1.072-3.197,0.308-4.841,0.926
				c-0.201,0.598-0.044,1.057,0.094,1.566c0.792,0.347,1.516-0.491,2.353,0.254c0.299,1.416-0.017,2.403-0.666,2.483
				c-1.074,0.13-2.925-0.012-3.62-0.206c-3.151,0.836-6.275,0.488-9.504,1.142c1.793,0.271,3.455-0.479,5.06,0.047
				c-0.006-0.262,0.053-0.379,0.178-0.35c1.58,0.146,3.333,0.128,4.72-0.333c0.58,0.866,1.703-0.149,2.29,0.73
				c-0.148,1.362-0.632,1.984-1.24,2.329c0.621-0.078,1.198,0.372,1.719,0.458c0.426,0.07,1.165-0.339,1.381-0.041
				c0.052,0.072-0.048,0.351,0.052,0.363c-0.175-0.021,0.312-0.076,0.347-0.1c0.233-0.158,0.19-0.258,0.462-0.215
				c0.354,0.056,0.347,0.075,0.57,0.393c1.221,0.217,2.406-0.202,3.623,0.086c0.126,0.029,0.382,0.008,0.402,0.022
				c0.115,0.085,0.017,0.323,0.168,0.369c0.086,0.026,0.048-0.261,0.175-0.229c0.474,0.113,1.017,0.233,1.493,0.204
				c1.188-0.073,2.594,0.26,3.563,0.201c0.216,0.088-0.068,0.499,0.224,0.494c1.669,0.295,3.433,0.525,5.22,0.653
				c0.134,0.044,0.027,0.569,0.224,0.493c0.246,0.09,0.186-0.494,0.408-0.458c0.137,0.157,0.263,0.336,0.336,0.619
				c2.045,0.443,4.154-0.046,6.264-0.249c1.966-0.189,3.938-0.177,5.805-0.275c1.472-0.078,2.878-0.588,4.195-0.245
				c1.766-0.403,3.292-0.378,4.946-0.443c1.19-0.043,2.508,0.225,3.498-0.03c0.171-0.046,0.375-0.321,0.575-0.32
				c0.302,0,0.605,0.414,0.906,0.423c0.813,0.023,1.647-0.463,2.458-0.431c0.91,0.038,1.785,0.132,2.678,0.186
				c0.504,0.031,0.989-0.352,1.49-0.376c0.332-0.017,0.677,0.313,1.021,0.311c0.964-0.008,1.947-0.522,2.859-0.401
				c1.218,0.16,2.466,0.7,3.706,0.136c1.363,0.336,3.022,0.377,4.331,0.18c1.052,0.97,2.163,0,3.361,0.234
				c0.127,0.024,0.209,0.211,0.336,0.264c1.808,0.734,3.836-0.521,5.302,0.127c0.558-0.619,1.019,0.085,1.528,0.238
				c0.549,0.167,1.064-0.233,1.596-0.234c0.174-0.001,0.328,0.245,0.504,0.277c0.534,0.104,1.063-0.283,1.656-0.348
				c0.885-0.098,1.807,0.958,2.829,0.342c0.774,0.464,1.922,1.008,2.825,0.462c1.494,0.937,3.042-0.081,4.586,0.36
				c0.521,0.149,0.983,0.797,1.525,0.239c0.532,0.657,1.194,0.296,1.859,0.388c0.657,0.09,1.334,0.479,2.019,0.64
				c0.976,0.228,2.208-0.262,2.907,1.07c0.261,2.737,1.02-1.263,1.786-0.701c0.399,0.561,0.323,1.327,0.473,2.32
				c0.357,0.418,0.712,0.177,1.077-0.035C120.362,115.455,120.631,116.695,121.188,116.721z M21.392,86.305
				c0.011-0.139-0.01-0.214-0.055-0.243C21.46,85.486,21.729,86.328,21.392,86.305z M21.272,86.538
				c-0.478,0.05-1.148,0.59-1.495,0.155c-0.093-0.003,0.083,0.684-0.069,0.836c-0.203-0.297-0.444-0.521-0.796-0.525
				c-0.021-0.995,0.675-0.402,0.707-1.28c0.269,0.083,0.4,0.128,0.521-0.329c0.551,0.333,0.674-0.278,1.09,0.063
				C21.12,86.026,21.305,85.893,21.272,86.538z"/>
		</g>
	</g>
</g>
<rect x="45.699" y="79.417" fill="none" width="114.165" height="23.168"/>
<text transform="matrix(1 0 0 1 45.6992 95.7852)"><tspan x="0" y="0" fill="#FFFFFF" font-family="'GillSansMT'" font-size="21">A D A</tspan><tspan x="55.433" y="0" fill="#FFFFFF" font-family="'GillSansMT'" font-size="24"> </tspan></text>
<rect x="48.932" y="64.226" fill="#FFFFFF" width="89.593" height="11.703"/>
<path fill="none" d="M41.085,106.167c0,0,77.209-2.592,107.996,7.578"/>
<text transform="matrix(0.9998 -0.0191 0.0191 0.9998 43.1445 106.0313)"><tspan x="0" y="0" fill="#FFFFFF" font-family="'CopperplateGothic-Light'" font-size="10">C</tspan><tspan x="8.444" y="0.003" fill="#FFFFFF" font-family="'CopperplateGothic-Light'" font-size="10" rotate="0.586">o</tspan><tspan x="15.934" y="0.079" fill="#FFFFFF" font-family="'CopperplateGothic-Light'" font-size="10" rotate="1.08">n</tspan><tspan x="22.923" y="0.213" fill="#FFFFFF" font-family="'CopperplateGothic-Light'" font-size="10" rotate="1.537">s</tspan><tspan x="29.106" y="0.381" fill="#FFFFFF" font-family="'CopperplateGothic-Light'" font-size="10" rotate="1.963">t</tspan><tspan x="34.615" y="0.566" fill="#FFFFFF" font-family="'CopperplateGothic-Light'" font-size="10" rotate="2.422">r</tspan><tspan x="40.988" y="0.834" fill="#FFFFFF" font-family="'CopperplateGothic-Light'" font-size="10" rotate="2.965">u</tspan><tspan x="47.491" y="1.169" fill="#FFFFFF" font-family="'CopperplateGothic-Light'" font-size="10" rotate="3.595">c</tspan><tspan x="54.515" y="1.614" fill="#FFFFFF" font-family="'CopperplateGothic-Light'" font-size="10" rotate="4.257">t</tspan></text>
<polygon fill="#BE2026" points="71.104,21.15 99.511,46.676 127.919,72.203 71.104,72.203 14.288,72.203 42.696,46.676 "/>
<polygon stroke="#000000" stroke-miterlimit="10" points="93.733,30.458 87.647,24.537 91.315,15.842 97.981,22.037 "/>
<polygon fill="#FFFFFF" stroke="#000000" stroke-miterlimit="10" points="72.007,12.403 28.442,51.235 42.942,51.235 42.942,71.735 
	97.942,71.735 97.942,51.235 112.354,51.235 "/>
<polygon fill="#FFFFFF" stroke="#000000" stroke-width="3" stroke-miterlimit="10" points="71.716,17.888 39.017,47.478 
	46.899,47.478 46.899,67.738 93.972,67.738 93.972,47.478 102.782,47.478 "/>
<rect x="64.629" y="40.479" fill="#BE2026" width="3.167" height="3.667"/>
<rect x="71.435" y="40.479" fill="#BE2026" width="3.168" height="3.667"/>
<rect x="71.435" y="46.676" fill="#BE2026" width="3.168" height="3.666"/>
<rect x="64.629" y="46.509" fill="#BE2026" width="3.167" height="3.667"/>
<polygon fill="#171617" stroke="#000000" stroke-miterlimit="10" points="127.872,75.929 144.015,80.972 137.614,99.298 
	128.88,120.712 113.583,114.356 "/>
<path fill="#C9C9C9" d="M141.358,109.862c-1.555-1.768-4.947-5.344-4.045-6.758c1.289-2.014-0.533-5.9-0.762-8.125
	c-0.221-2.15-0.576-2.096,0.965-4.178c1.053-1.418-0.711-3.393-2.75-1.088c0,0-1.602,2.131-1.965,4.42c0,0-1.549-5.297-4.418-3.996
	c-1.32,0.598-0.141,3.785-0.141,3.785s-1.111-2.564-1.797-2.342c-2.406,0.787-1.844,3.598-1.844,3.598s-0.555-0.232-1.654,1.248
	c-0.439,0.592-0.092,2.01-0.092,2.01s-0.895,0.85-0.686,2.102c0.205,1.25,0.295,1.604,1.67,2.928l4.723,5.648
	c0,0,2.58,15.887,8.006,9.902C136.569,119.017,142.917,111.63,141.358,109.862z"/>
<path fill="#BE2026" d="M130.177,90.198c0,0,1.791-4.934,2.297-5.734c1.77-2.793,4.076,0.188,3.164,2.225
	c-0.914,2.039-2.721,7.002-2.721,7.002L130.177,90.198z"/>
<polygon fill="#BE2026" points="124.591,104.36 122.772,108.917 125.874,110.808 127.331,107.64 "/>
</svg>
